<?xml version="1.0" encoding="UTF-8"?>
<svg version="1.1" viewBox="0 0 1024 1024" width="1024" height="1024" xmlns="http://www.w3.org/2000/svg">
<path transform="translate(506,110)" d="m0 0h14l14 5 26 12 22 11 23 11 28 13 11 6 35 17 17 7 32 16 28 13 21 10 18 8 36 17 14 9 5 5 4 5 3 7 1 6v396l-3 11-5 9-8 7-27 13-28 13-24 11-29 14-28 13-33 15-23 11-24 11-31 15-28 13-35 17-16 6-10-1-19-8-12-6-23-11-28-14-20-9-32-15-26-12-20-9-14-7-26-12-39-19-20-9-32-15-12-5-7-5v-2h-2l-6-12-1-4v-401l3-10 8-10 9-6 16-8 27-13 16-7 30-15 20-9 16-8 17-8 15-7 19-9 14-7 50-24 28-13 17-8 16-8 11-5z" fill="#F6F6F9"/>
<path transform="translate(202,294)" d="m0 0h6l14 6 24 11 26 12 20 9 17 8 23 10 29 14 28 13 29 14 21 10 43 19 12 6 1 1v388l-6-1-24-12-18-8-30-15-7-3-15-7-19-9-16-7-17-8-20-9-28-13-29-14-20-9-18-8-16-8-5-3-4-6-1-3z" fill="#311637"/>
<path transform="translate(817,293)" d="m0 0h5v383l-5 6-16 8-33 15-28 13-23 11-33 15-33 16-28 13-26 13-33 15-30 14-3-1-1-387 15-7 31-15 15-8 12-5 12-6 14-6 8-4 19-9 15-7 24-12 21-9 13-6 10-5 10-4 22-10 9-4 12-6 21-9z" fill="#311637"/>
<path transform="translate(511,146)" d="m0 0 6 1 23 10 19 10 41 20 25 11 32 16 35 16 16 8 25 12 30 14 28 14-1 3-26 12-24 11-21 10-21 9-26 12-16 8-28 13-29 14-28 13-29 14-16 8-12 4-9-3-13-5-14-8-35-16-29-14-12-5-10-5-23-11-28-13-33-15-26-11-30-14-13-6-5-4 1-3 22-10 8-4 14-6 40-20 10-4 15-7 9-5 10-4 12-6 17-8 28-13 12-6 17-8 16-8 19-9 17-8z" fill="#311637"/>
<path transform="translate(506,110)" d="m0 0h14l14 5 26 12 22 11 23 11 28 13 11 6 35 17 17 7 32 16 28 13 21 10 18 8 36 17 14 9 5 5 4 5 3 7 1 6v396l-3 11-5 9-8 7-27 13-28 13-24 11-29 14-28 13-33 15-23 11-24 11-31 15-28 13-35 17-16 6-10-1-19-8-12-6-23-11-28-14-20-9-32-15-26-12-20-9-14-7-26-12-39-19-20-9-32-15-12-5-7-5v-2h-2l-6-12-1-4v-401l3-10 8-10 9-6 16-8 27-13 16-7 30-15 20-9 16-8 17-8 15-7 19-9 14-7 50-24 28-13 17-8 16-8 11-5zm2 16-19 7-12 6-69 33-10 5-28 13-17 8-16 8-102 48-17 9-20 9-10 6-5 6-1 4v397l3 7 5 5 16 8 20 9 35 17 28 13 30 14 29 13 23 11 33 15 23 11 70 34 13 5 9-1 31-15 23-11 19-9 16-7 16-8 31-15 24-11 29-14 27-12 16-8 22-10 16-8 28-13 14-6 8-7 3-10v-365l-1-34-7-7-32-16-9-4-24-12-9-4-34-16-33-15-19-10-11-5-17-8-16-8-31-15-6-1v-2l-23-11-8-4-8-3-14-7-19-8-4-1z" fill="#32183B"/>
<path transform="translate(840,283)" d="m0 0h1l1 34v365l-3 10-8 7-29 13-28 13-16 8-19 9-33 15-37 18-24 11-44 21-24 11-23 11-16 8-19 9-5 1v-412l16-8 1 21 1 366 9-3 29-14 20-9 58-28 26-12 27-13 33-15 27-13 33-15 20-9 6-5 1-2 1-383-8 2v-2l11-4 9-3 6-1z" fill="#A4B1CE"/>
<path transform="translate(798,403)" d="m0 0 4 2 2 3v8l-4 6-16 8-16 7-28 13-16 7-24 11-17 8-20 9-15 7-21 10-20 9-32 15-14 6h-6l-3-3-1-6 4-8 24-13 33-15 28-13 16-7 23-11 20-9 58-26 30-13z" fill="#747FE9"/>
<path transform="translate(797,366)" d="m0 0h4l2 6v8l-7 6-16 8-26 11-15 7-19 8-14 7-15 6-28 13-20 9-39 18-38 19-10 2-5-6 3-9 7-6 25-12 28-13 29-13 16-8 27-12 28-13 27-12 42-18z" fill="#7578EE"/>
<path transform="translate(795,328)" d="m0 0 5 1 3 5v7l-4 5-19 9-36 16-40 18-28 13-25 12-36 16-40 19-15 7-5-1-3-2v-7l4-7 13-8 20-9 23-11 24-11 20-9 16-8 34-16 36-16 49-21z" fill="#747FE9"/>
<path transform="translate(799,442)" d="m0 0 3 2 1 3v9l-6 5-29 13-25 11-28 13-33 15-15 7-28 13-41 20-20 9-15 8-8 1-4-5 1-8 4-5 14-8 28-13 38-18 37-17 25-12 47-21 25-11 20-8z" fill="#7368CA"/>
<path transform="translate(797,580)" d="m0 0h4l1 3v12l-7 5-16 7-32 15-16 7-35 16-23 10-15 7-41 19-57 27h-5l-4-5 1-7 5-6 23-12 30-14 21-10 25-11 16-8 26-12 30-13 29-13 30-13z" fill="#7577ED"/>
<path transform="translate(301,263)" d="m0 0 7 1 21 10 27 12 28 13 34 16 35 16 23 11 34 16 12 6 20 9 2 1-2 4-12 7-2 1-12-5-17-8-27-12-27-13-65-30-17-8-24-11-15-7-19-8-10-6-5-4 1-3 8-6h2z" fill="#2FBEF8"/>
<path transform="translate(341,243)" d="m0 0 6 1 20 9 33 15 69 32 36 17 19 9 20 9 38 18 2 4-12 9-4 2-16-9-23-10-16-8-38-18-26-12-21-10-26-12-40-18-16-8-15-8-1-3 9-6z" fill="#41CEF9"/>
<path transform="translate(798,652)" d="m0 0 4 1 1 2v9l-3 5-16 8-23 11-28 13-24 11-29 14-26 12-25 12-28 13-27 13-14 6-5-1-3-4 1-8 7-6 49-24 21-9 43-21 20-9 24-11 8-4 25-11 30-14 12-5z" fill="#5C5CC5"/>
<path transform="translate(464,185)" d="m0 0h6l15 7 30 13 19 9 28 13 24 11 14 6 12 6 20 9 23 11 28 13 19 9 8 5-3 3-12 7-6-1-50-24-24-11-28-13-32-15-18-8-41-19-22-9-14-7-7-5 10-8z" fill="#30BEF8"/>
<path transform="translate(506,165)" d="m0 0 9 3 21 10 28 13 27 13 28 13 34 16 23 11 18 8 16 8 17 8 16 7 6 4-3 3-13 6-7-1-18-8-19-9-16-8-34-16-27-13-20-9-90-42-9-6-1-2 8-4z" fill="#41CDF9"/>
<path transform="translate(797,617)" d="m0 0h4l1 3v11l-5 4-67 31-61 28-29 14-26 12-29 14-24 11-7-1-2-3v-6l4-6 10-6 55-26 24-11 40-19 36-16 21-10 36-16z" fill="#607ADF"/>
<path transform="translate(338,527)" d="m0 0h8l9 3 9 6 10 13 4 8 2 8v14l-4 11-7 8-9 5-6 2h-10l-12-4-10-6-6-7-6-12-2-7v-14l4-13 7-8 10-5z" fill="#149FF2"/>
<path transform="translate(425,426)" d="m0 0h14l11 4 10 8 5 5 5 10 2 6v19l-4 9-7 8-7 4-4 1h-12l-10-4-11-7-7-8-6-12-1-3v-18l4-9 5-6 10-6z" fill="#F6F7F9"/>
<path transform="translate(247,509)" d="m0 0h11l9 3 9 7 6 7 6 12 2 10v9l-4 11-6 8-9 5-12 2-11-2-12-7-8-8-7-15-1-4v-8l3-10 6-10 7-6 6-3z" fill="#149FF2"/>
<path transform="translate(422,562)" d="m0 0h16l11 4 11 8 7 10 5 12v16l-4 9-7 8-5 3-9 2h-9l-13-4-9-6-6-7-5-10-3-12v-7l3-11 6-8 6-5z" fill="#12A0F2"/>
<path transform="translate(482,231)" d="m0 0 8 1 17 7 24 11 25 11 19 9 84 39 6 5-2 4-10 6-6-1-18-8-23-10-28-13-18-8-34-16-18-8-26-12-4-4 3-11z" fill="#139FF2"/>
<path transform="translate(368,756)" d="m0 0 5 2 16 7 24 12 7 3 26 12 16 8 23 11 10 4v-25h1v26h-3v3l4 1 9 5v8l-3 6-2-1 1-2-7-2-4 1-6-4-6-3h-2l-1 1-1 2-25-12-50-24-20-9-11-5 4-1h2l-7-6-6-1 2-1 1-7 4-5z" fill="#E9EAF0"/>
<path transform="translate(469,264)" d="m0 0 9 2 25 10 15 7 42 19 29 14 19 9 14 7 2 4-5 5-6 5-5-1-12-5-34-16-25-11-28-13-32-14-13-8-1-6z" fill="#737FE9"/>
<path transform="translate(246,602)" d="m0 0h10l12 5 9 8 3 6v6l-5 1-15-7-3-1h-7l-4 4 2 5 12 5 9 1 9 3 4 5 4 7v14l-4 7-3 1v2l-10 4-4 1h-18l-9-3-5-6-1-7 26-1 10-3 1-4-5-2-25-12-11-9-5-5v-7l4-8 9-7z" fill="#F4F5F9"/>
<path transform="translate(243,388)" d="m0 0h15l7 3 8 6 6 8 7 23v11l-3 8-2 3h-2l-2 4-6 4-9 2h-17l-15-5-2-1v-6l3-4h14l6-1h9l4-3h2l3-9-1-10-4-8-4-4-4-2h-8l-6 3-3 5 1 8 8 12-1 4-9-2-10-7-4-5-2-5v-10l3-9 5-6 7-5z" fill="#F3F3F8"/>
<path transform="translate(426,212)" d="m0 0h14l10 4 6 4 5 5 3 7v11l-6 11-5 6-11 5h-13l-12-4-9-7-6-9v-15l4-6 9-8z" fill="#E3E4EE"/>
<path transform="translate(437,679)" d="m0 0h14l8 3 6 4 1 2v6l-3 3-10-1h-12l-3 2v2l11 7 11 8 8 7 4 7v15l-5 8-6 6-12 3h-17l-10-4-4-5v-8l1-1 11 1h18l5-2 2-2v-7l-7-6-11-6-9-7-5-4-6-8-1-2 1-9 6-7 10-4z" fill="#F5F6F9"/>
<path transform="translate(318,628)" d="m0 0h17l12 5 6 5 1 2v6l-1 2-10-1-8-2-9 1v4l12 7 10 6v2l4 2 6 7 1 3v10l-3 6-8 7-14 6-13 4h-7l-5-3-2-2v-9l8-3 26-7 1-1v-5l-10-7-11-6-7-6-8-12v-10l4-6z" fill="#F4F5F9"/>
<path transform="translate(336,377)" d="m0 0 5 1 9 4-1 7-6 12-7 16-9 17-7 16-21 42-3 4h-7l-7-3 1-7 20-40 9-21 9-17 9-19z" fill="#F4F4F8"/>
<path transform="translate(374,494)" d="m0 0 5 1 21 9 29 13 32 14 12 6 2 3v10l-3 4-8-1-28-12-20-9-26-12-14-7-5-6v-7z" fill="#2FBEF8"/>
<path transform="translate(338,527)" d="m0 0h8l9 3 9 6 10 13 3 6v9l-3 1h-10l-3-3v-2l-3-1-4-6-6-4-9-1-8 4-3 4-3 10 1 6 1 5-4 9-4 1-2-1-2-5-3-1-4-11v-14l4-13 7-8 10-5z" fill="#2EC0F9"/>
<path transform="translate(657,390)" d="m0 0h5l2 3-1 5-6 3-8 3-4 1-3 3-2 5h-2v3h2v3l-32 14-16 8-32 15-5-1-3-2v-7l4-7 13-8 20-9 23-11 24-11 20-9z" fill="#7F8FF4"/>
<path transform="translate(228,329)" d="m0 0 9 3 31 14 24 11 21 9 4 4v9l-5 5h-7l-24-10-35-17-19-9-5-6-1-6 5-6z" fill="#30BEF7"/>
<path transform="translate(797,617)" d="m0 0h4l1 3v11l-5 4-67 31-35 16-4 2-3-1 8-4h2v-4l4-8v-2h2v-2h-8l3-2 19-9 33-15 31-14z" fill="#5C5CC5"/>
<path transform="translate(247,509)" d="m0 0h11l9 3 9 7 6 7 4 8 1 6-1 6-1-2h-4v-2l-7 1-6-4-7-6-7-3-7 1-4 5-2 3-2-1 1 14 1 5-2 2v9l-1 2h-2l-4-4h-4l-7-15-1-4v-8l3-10 6-10 7-6 6-3z" fill="#30BEF8"/>
<path transform="translate(650,234)" d="m0 0h6l24 12 15 7 32 15 16 7 6 4-3 3-13 6-7-1-18-8-19-9-16-8-34-16-3-2v-2l-2-1 4-1 2 1 6-3z" fill="#139FF2"/>
<path transform="translate(375,396)" d="m0 0 7 1 8 4-1 4-7 15-12 25-5 11-20 40-1 1-10-1-4-2 1-6 5-12 8-16 10-23 10-19 9-20z" fill="#F6F6F9"/>
<path transform="translate(799,442)" d="m0 0 3 2 1 3v9l-6 5-29 13-25 11-28 13-5 1-3-4 2-4 1-5v-6l17-8 20-9 23-10 20-8z" fill="#6663C9"/>
<path transform="translate(797,580)" d="m0 0h4l1 3v12l-7 5-16 7-32 15-16 7-29 13-4-2 7-1 1-2 4-1-2-2 2-1 2-6 3-4-1-3-6 1-1-2 28-12 22-10 30-13z" fill="#6763C9"/>
<path transform="translate(401,641)" d="m0 0 9 1 6 2-1 9-10 19-5 10-8 17-7 15-6 12-6 10-5 1-10-5 2-6 22-45 11-26z" fill="#F5F6F9"/>
<path transform="translate(464,185)" d="m0 0h6l15 7 30 13 19 9 20 9 1 3 2 2-3 1-1 4h-5v3l-6-1-5-3-2-2h-3l-1 2-33-15-24-10-14-7-7-5 10-8z" fill="#41CEF9"/>
<path transform="translate(632,440)" d="m0 0h5l2 1 1 9v3l-1 4-35 16-38 19-10 2-5-6 3-9 7-6 25-12 28-13z" fill="#808FF3"/>
<path transform="translate(503,317)" d="m0 0 6 2 35 16 38 18 2 4-12 9-4 2-16-9-23-10-16-8-25-12-2-3h5l2-5 7-1 1-2 2 1z" fill="#129FF2"/>
<path transform="translate(713,512)" d="m0 0h5l18 14 12 9 2 2-1 8-8 14-6 11-8 16-6 11-4 2h-8l-1-1v-7l8-18 8-17 7-12-1-3-10-7-7-5-5-3-3-2 1-6z" fill="#F6F6F9"/>
<path transform="translate(627,480)" d="m0 0h5v3l-2 8-2 5 1 5-33 15-21 10-14 6h-6l-3-3-1-6 4-8 24-13 33-15z" fill="#7F90F4"/>
<path transform="translate(630,730)" d="m0 0h5l3 7-2 2-1 5 3 1-16 8-31 15-31 14-5-1-3-4 1-8 7-6 49-24z" fill="#6763C9"/>
<path transform="translate(611,560)" d="m0 0h7l22 18 6 7v8l-7 15-16 32-3 3-5 2h-8v-7l10-22 12-24v-2l-17-13-7-7v-5z" fill="#F5F6F9"/>
<path transform="translate(301,263)" d="m0 0 7 1 21 10 36 16 2 4 7 3v7l2 1v7l-5-1h-6l-26-12-15-7-19-8-10-6-5-4 1-3 8-6h2z" fill="#42CFF9"/>
<path transform="translate(482,231)" d="m0 0 8 1 17 7 24 11 25 11 8 4-1 3-6 3-1 6h-3v2l-6-1-21-10-18-8-26-12-4-4 3-11z" fill="#2FBEF8"/>
<path transform="translate(668,533)" d="m0 0 5 4 13 17 9 11v7l-9 19-6 10-8 17-2 2-7 2h-6l-1-5 8-19 13-25v-4l-11-14-9-13 1-5z" fill="#F6F7F9"/>
<path transform="translate(770,488)" d="m0 0 4 1 7 9 15 15 5 7v7l-11 21-6 10-6 12-11 5-4-1 1-8 9-20 8-14 3-5-2-5-20-20-2-3v-5l7-5z" fill="#E6E7EF"/>
<path transform="translate(798,403)" d="m0 0 4 2 2 3v8l-4 6-16 8-16 7-28 13-16 7-4 1 3-3 8-4 3-1 3-9 1-1v-5h-3v5l-12-1-5 2-3-1 35-16 30-13z" fill="#6663C9"/>
<path transform="translate(559,586)" d="m0 0h5l14 12 8 6 7 8v7l-8 16-6 9-4 5-5 10-7 6-6-1-4-4-1-7 10-8 8-13 7-12-1-4-17-12-8-7 1-5z" fill="#F6F6F9"/>
<path transform="translate(621,521)" d="m0 0h5l-1 2h-2l1 7-2 3h-2l-2 6-5 5-5 4-40 19-8 4h-5l-4-5 1-8 4-5 14-8 28-13z" fill="#7678EF"/>
<path transform="translate(422,562)" d="m0 0h16l11 4 11 8-2 1-1 6-6 2-2 2-6-1-6-2h-7l-6 2-2 4-2 3h-2v5h-5l3 6v8l-1 2h-2v2l2 1-5 1-4-7-3-8-1-13 3-11 6-8 6-5z" fill="#2EC1F9"/>
<path transform="translate(454,332)" d="m0 0 5 2 51 24 12 6 20 9 2 1-2 4-12 7-2 1-12-5-17-8-27-12-25-12v-1h5l16 8 8 2v-6l-1-2 2-5-5-2-18-9z" fill="#11A0F2"/>
<path transform="translate(797,366)" d="m0 0h4l2 6v8l-7 6-16 8-26 11-15 7-12 5-2-1 20-10-1-1-1-10h-4l-9 1 4-3 26-11 18-8z" fill="#6763C9"/>
<path transform="translate(429,444)" d="m0 0h11l9 6 5 8 2 5v9l-4 8-5 3h-10l-10-5-6-8-2-6v-7l4-9 3-3z" fill="#311739"/>
<path transform="translate(339,547)" d="m0 0 9 1 8 6 4 7 1 5v8l-3 8-5 4-2 1h-10l-6-4-8-11-1-3v-9l3-7 7-5z" fill="#311637"/>
<path transform="translate(368,756)" d="m0 0 5 2 16 7 24 12-1 3-4-1v2h-2v3h2l1 2v7h6l5 8v3l-6-2-14-7-20-9-11-5 4-1h2l-7-6-6-1 2-1 1-7 4-5z" fill="#F1F2F7"/>
<path transform="translate(589,207)" d="m0 0h3l1 2 7-1 40 19 13 6-1 3-5 2-4 3-4 1h-3l-1 2-26-12-15-7-11-5 1-3h6l1-9z" fill="#30BFF8"/>
<path transform="translate(630,693)" d="m0 0 5 1-2 1 1 5h-2v2l-9 4-10 4-2 5-14-1v2l-5 4h-2l-2 5-3 5-2 5-22 10-7-1-2-3v-6l4-6 10-6 55-26z" fill="#7476EC"/>
<path transform="translate(431,522)" d="m0 0 12 1 27 12 5 5v10l-3 4-8-1-28-12-20-9 2-4 9-4z" fill="#1AB1F8"/>
<path transform="translate(795,328)" d="m0 0 5 1 3 5v7l-4 5-19 9-33 15-3-1 7-4 3-3 2-1 1-8-10-2-5 1 4-3 41-17z" fill="#6663C9"/>
<path transform="translate(430,581)" d="m0 0h7l10 4 7 11 1 10-3 6-6 4h-10l-8-5-6-7-2-7v-7l4-6z" fill="#311637"/>
<path transform="translate(579,312)" d="m0 0 6 2 23 11 14 7 2 4-5 5-6 5-5-1-12-5-30-14 2-7 3-4 8-1z" fill="#617ADF"/>
<path transform="translate(564,266)" d="m0 0 9 3 34 16 2 6h-3l-1 8-4 1-15-6-9-4-9-2-16-8 1-3h3v-6l4-3z" fill="#1BB1F8"/>
<path transform="translate(735,435)" d="m0 0h3l1 6-2 1-3 9-9 4-4 2-1 2-18 8-9 3-4 2h-5l-1-4v-6l5-4 4-5 3-1 2-4 15-7 9-2 2-1 9 1 3 1z" fill="#7578F0"/>
<path transform="translate(250,529)" d="m0 0 7 1 9 6 5 6v13l-3 6-6 5h-8l-6-4-6-7-2-6v-7l4-9 3-3z" fill="#311637"/>
<path transform="translate(650,234)" d="m0 0h6l36 18v2l4 1v2l3 1-5 2-1 2-7 3-5-1-12-6-11-3-21-10-1-3-2-1 4-1 2 1 6-3z" fill="#1BB2F8"/>
<path transform="translate(656,271)" d="m0 0 6 2 33 16 14 7v3l-14 8-6-1-50-24-7-3v-1l8 1 11 6 10 3 1-4 4-6-10-5z" fill="#149EF1"/>
<path transform="translate(458,298)" d="m0 0 9 1 23 11 13 6v3l-10 3-2 4-6 2-34-16 1-3 3-1 1-9z" fill="#2EC0F9"/>
<path transform="translate(799,442)" d="m0 0 3 2 1 3v9l-6 5-29 13-13 6h-3v-2l4-3 1-2 4-1 3-8 4-7 3-2-1-2 20-8z" fill="#5C5CC5"/>
<path transform="translate(442,327)" d="m0 0 9 3 3 2v2l5 2 18 9-1 6 1 4-1 4-9-3-15-7-10-2-5-3-4-5h2l2-6 3-4h2z" fill="#1AB3F9"/>
<path transform="translate(283,354)" d="m0 0 9 3 21 9 4 4v9l-5 5h-7l-22-9-1-4 2-1 1-10-1-3-2-1z" fill="#1BB1F8"/>
<path transform="translate(422,562)" d="m0 0h16l11 4 11 8-2 1-1 6-6 2-2 2-6-1-6-2-11-1 2-1-3-5-6-7-3-2 3-3z" fill="#2FC0F9"/>
<path transform="translate(265,512)" d="m0 0 5 2 10 9 6 11 1 6-1 6-1-2h-4v-2l-7 1-6-4-7-6-7-3-7 1-2 1v-3l8-2h3v-3h2l1-6h2v-3l4-2z" fill="#31BCF7"/>
<path transform="translate(633,262)" d="m0 0 7 1 16 8 1 2 10 5-4 6-1 5-6-1-9-4-10-5-9-2-7-3-1-4 7-2 4-5z" fill="#1AB3F9"/>
<path transform="translate(503,317)" d="m0 0 6 2 20 9 2 4-4 4v2l-2 2h-3v2l-5-1-10-5-7-1-13-7-1-2h5l2-5 7-1 1-2 2 1z" fill="#1AB1F8"/>
<path transform="translate(770,488)" d="m0 0 4 1 7 9 11 11-1 7 1 3-5 2-3 1v-2l-5-1-17-17-2-3v-5l7-5z" fill="#F6F6F9"/>
<path transform="translate(797,580)" d="m0 0h4l1 3v12l-7 5-16 7-6 3h-6v-5h-2l1-5 5-2-1-2 2-2 4-3 9-4 2-2 3-2z" fill="#5C5CC5"/>
<path transform="translate(247,509)" d="m0 0h11l7 2 1 4h-5v3h-2l-1 6h-2v3l-11 2v2l-16-2-2-5 3-6 6-5 6-3z" fill="#41D0F9"/>
<path transform="translate(430,227)" d="m0 0 9 1 6 4 2 2 1 8-5 6-4 2h-9l-7-3-4-5-1-6 3-5 5-3z" fill="#32183B"/>
<path transform="translate(332,528)" d="m0 0h13v2l4 1 1 3-3 10-1 1-10 2-7 3-6-2-8-4-1-3 10-10z" fill="#41D6FC"/>
<path transform="translate(228,329)" d="m0 0 9 3 9 4v3l4 1 2 2v6l-3 6-6 2-17-9-4-5-1-6 5-6z" fill="#40CEF9"/>
<path transform="translate(747,350)" d="m0 0 7 2 3 1 1 5-5 7-6 3-9 4-8 2-3-1-1 2-3-2v-5l-2-2 1-3 7-3 3-3 5-2h3v-2z" fill="#7679F1"/>
<path transform="translate(764,418)" d="m0 0h4v3l-4 1-1 2-5 5-4 6h-2l-2 9h-7l-2-1 1 6-18 8-4 1 3-3 8-4 3-1 3-9 1-1v-5h-3v5l-12-1-5 2-3-1 35-16z" fill="#7268CA"/>
<path transform="translate(311,557)" d="m0 0h14v12l2 5-2 9-4 4-4-1-2-5-3-1-4-11v-6z" fill="#1AB5FA"/>
<path transform="translate(572,544)" d="m0 0 4 1-1 7-2 1-5 10 1 2h-2v3l-7 3h-5l-4-5 1-8 4-5 14-8z" fill="#7F8EF3"/>
<path transform="translate(412,218)" d="m0 0h5l2 4-2 5 3 1h1 2l-2 4-2 3h-2l-1-2-3 7-2 8-3 3-4-2-2-4v-15l4-6z" fill="#F6F7FA"/>
<path transform="translate(418,591)" d="m0 0h2l3 13 1 4 5 7-1 11v3l-6-2-8-5-4-6 3-2v-2h2v-10l-2-3v-3l4-1z" fill="#19B3F9"/>
<path transform="translate(468,535)" d="m0 0 5 2 2 3v10l-3 4-8-1-24-10 3-2 7 1 2-4h7l7 2 3-1z" fill="#149EF1"/>
<path transform="translate(731,646)" d="m0 0 4 1-10 5-5 4-1 3-5 5v3l-2 1 1 2 3 1h-2v2l-23 11-3-1 8-4h2v-4l4-8v-2h2v-2h-8l3-2 19-9z" fill="#6763C9"/>
<path transform="translate(368,756)" d="m0 0 5 2 14 6-2 5 1 4-3 6-3-1h-2l-3 2-7-6-6-1 2-1 1-7 4-5z" fill="#E9EAF0"/>
<path transform="translate(760,382)" d="m0 0h3l-1 3-4 3v3l4 2v3h-3l-4-2-2 3 1 5v3l-15 7-12 5-2-1 20-10-1-1-1-10h-4l-9 1 4-3z" fill="#7168CA"/>
<path transform="translate(420,801)" d="m0 0 6 2 2 1 1-3 5 2 8 5 3 3h6l7 5v2l3-1v2l4 1v2h6l1 3 4 1-2 1v2h2l-1 2-25-12-27-13-3-1z" fill="#E8E9F3"/>
<path transform="translate(320,533)" d="m0 0 2 1-7 7 1 2 12 6 6-2 5-1v2l-8 4-3 4-2 6-3-4h-12l-2 5h-1v-8l4-13 7-8z" fill="#30BCF7"/>
<path transform="translate(422,562)" d="m0 0h16l4 2-2 4-2 1-3 6v4h-3v2h-6l2-1-3-5-6-7-3-2 3-3z" fill="#41CFF9"/>
<path transform="translate(828,274)" d="m0 0 6 2 6 6v3l-13 4h-9l-5-3 1-5h2l1-5 9 1z" fill="#E8EAF0"/>
<path transform="translate(765,341)" d="m0 0h7v2l-4 4-3 7-2 5-2 1-1 4-13 6-3-1 7-4 3-3 2-1 1-8-10-2-5 1 4-3z" fill="#7167CA"/>
<path transform="translate(255,633)" d="m0 0 14 2 9 3 4 5 4 7v14h-1l-1-12-3 1-8-5-4-2-4-6v-2l-6-2z" fill="#E8E9EF"/>
<path transform="translate(238,540)" d="m0 0h1l2 17-2 2v9l-1 2h-2l-4-4h-4l-2-10h2v-3l4-1 1-5 2-4h2z" fill="#1AB5FA"/>
<path transform="translate(372,550)" d="m0 0 5 5v9l-3 1h-10l-3-3v-2l-3-1-3-6 3-1 13-1z" fill="#1AB3F9"/>
<path transform="translate(562,645)" d="m0 0 2 2 2 6 6 1-3 6-6 5-6-1-4-4-1-7z" fill="#DFE1EC"/>
<path transform="translate(266,607)" d="m0 0 5 2 7 8 2 4v6l-5 1-15-7-3-2 7-3 4-4v-3h-2z" fill="#D6D7E9"/>
<path transform="translate(733,608)" d="m0 0h3l-2 5-1 1h-9l-1 7-5 6-3 5v4l-13 6-4-2 7-1 1-2 4-1-2-2 2-1 2-6 3-4-1-3-6 1-1-2z" fill="#7268CB"/>
<path transform="translate(279,529)" d="m0 0 5 1 3 9-1 7-1-2h-4v-2l-7 1-5-3-2-6h2l1-2z" fill="#1BB3F9"/>
<path transform="translate(588,537)" d="m0 0 2 1-4 4-6 2 1 12 4 2-17 9-1-4 6-11 2-5-1-4z" fill="#747EE7"/>
<path transform="translate(458,575)" d="m0 0 4 1 3 10 1 4-4-1-5 3-2 4v-2h-3l-5-8v-2l4-2 6-1z" fill="#1BB2F8"/>
<path transform="translate(651,431)" d="m0 0 4 1-1 2h-2l1 3h-4l-5 1 2 12 2 1-3 3-6 2-1-6v-4-4l-3-1-1-2z" fill="#7480E9"/>
<path transform="translate(559,766)" d="m0 0h6l2 2v3 2h2l-1 4-7 3h-5l-3-4v-5z" fill="#607CE1"/>
<path transform="translate(239,423)" d="m0 0 3 3 6 9-1 4-9-2-10-7-1-2 5 1 4-1v-2z" fill="#DEDFEB"/>
<path transform="translate(343,632)" d="m0 0 5 2 5 4 1 2v6l-1 2-10-1 3-2-2-2v-2z" fill="#CDCFE5"/>
<path transform="translate(298,360)" d="m0 0 9 3 9 5 1 2v9l-5 5h-7l-3-2 3-1 6 1v-2h4v-7l-4-2-1-2-5-1-2-3-4-2z" fill="#2193EA"/>
<path transform="translate(398,770)" d="m0 0 6 2v1l-6 1 3 2 1 7-2 3h-2v-2l-4-2-3-7 1-4h2v2l3-1z" fill="#E5E7EF"/>
<path transform="translate(467,266)" d="m0 0 2 4 2-2 3 9-2 5-5-2-4-4 1-5z" fill="#6074DA"/>
<path transform="translate(559,439)" d="m0 0 1 2h2l2 2v4h-2l2 4-4 3-5-1-2-4z" fill="#19B6FB"/>
<path transform="translate(255,633)" d="m0 0 14 2 9 3 4 5 3 5-1 2-5-7-12-3-12-6z" fill="#6F6FC8"/>
<path transform="translate(615,329)" d="m0 0 6 2 3 3-2 5-4 2-5-2-1-9z" fill="#7169CC"/>
<path transform="translate(621,521)" d="m0 0 3 1-5 4-7 3-4 1v2h-3v2l-9 2-5 2-1-2z" fill="#6F75DE"/>
<path transform="translate(559,766)" d="m0 0 3 1 1 3-2 3v4l-3 1-5-2v-5z" fill="#7679F1"/>
<path transform="translate(707,671)" d="m0 0h2l1 4-19 9-3-1 8-4h2v-4l3-1 1-2z" fill="#615FC7"/>
<path transform="translate(243,429)" d="m0 0 4 4 1 4-1 2-9-2-6-4 2-1h9z" fill="#9CA6CD"/>
<path transform="translate(556,439)" d="m0 0h3l-2 4-3 7 2 3h8l-4 3-5-1-3-2v-7z" fill="#7987D9"/>
<path transform="translate(739,352)" d="m0 0 3 1h-2v2l-9 4-5 4-7-1 2-2z" fill="#6E72DA"/>
<path transform="translate(651,431)" d="m0 0 4 1-1 2h-2l1 3h-4l-7 1 1-3z" fill="#7683EB"/>
<path transform="translate(447,348)" d="m0 0h5l16 8v3l-21-10z" fill="#2291E8"/>
<path transform="translate(564,761)" d="m0 0 4 1v2l-2 1-3 2-6 1-4 3 2-4 5-4z" fill="#6B66CD"/>
<path transform="translate(618,333)" d="m0 0 2 1 3 3-4 4-6-2v-4h4z" fill="#6765CB"/>
<path transform="translate(675,472)" d="m0 0 5 5-6 2-5-3 3-3z" fill="#7375EB"/>
<path transform="translate(673,421)" d="m0 0 3 1v3h-2l-1 3-7-2-2-1z" fill="#717AE3"/>
<path transform="translate(454,332)" d="m0 0 5 2 15 7v1h-5l-15-8z" fill="#298CE5"/>
<path transform="translate(482,231)" d="m0 0 8 1 3 2-8 1-5 5 1-7z" fill="#5E6CD3"/>
<path transform="translate(784,585)" d="m0 0 4 1-7 4-6 3-3-1 3-3z" fill="#6461C8"/>
<path transform="translate(316,370)" d="m0 0h1v9l-5 5h-7l-3-2 3-1 6 1v-2h4z" fill="#3A83E1"/>
<path transform="translate(592,319)" d="m0 0 5 1 9 4-3 2h-5l-2-2-1-3h-3z" fill="#7176DF"/>
<path transform="translate(556,691)" d="m0 0v3l-1 3v8h-3l-1-6 3-6z" fill="#6E75DE"/>
<path transform="translate(632,278)" d="m0 0 8 1 10 6-1 2-17-8z" fill="#2191E9"/>
<path transform="translate(712,633)" d="m0 0 1 2 2 1-13 6-4-2 7-1 1-2 5-2z" fill="#6367CD"/>
<path transform="translate(338,527)" d="m0 0h8l9 3-4 3-6-3v-2h-7z" fill="#3E9CE6"/>
<path transform="translate(662,256)" d="m0 0 7 1 8 4v3l-15-7z" fill="#2092E9"/>
<path transform="translate(741,443)" d="m0 0h12l-4 3-7 2v-2l-2-1z" fill="#6260C7"/>
<path transform="translate(700,498)" d="m0 0 2 1 4 3-6 3-4-1 3-4z" fill="#6662C8"/>
<path transform="translate(481,239)" d="m0 0h1l1 6 3 3-5-1-3-3 1-4z" fill="#3898EA"/>
<path transform="translate(438,789)" d="m0 0 8 3v3l-4 2v-2l-2-1z" fill="#E3E5F0"/>
<path transform="translate(263,637)" d="m0 0 5 1 9 1 2 3-10-1-6-3z" fill="#A5B1CE"/>
<path transform="translate(596,339)" d="m0 0 5 1 7 2 6 2-1 2-5-1-12-5z" fill="#6360C7"/>
<path transform="translate(795,328)" d="m0 0 4 1-5 4h-7l4-3z" fill="#5C5CC5"/>
<path transform="translate(658,680)" d="m0 0 4 1-10 5h-5l4-3z" fill="#6D72E1"/>
<path transform="translate(714,402)" d="m0 0h3v2h-2v2l-12 2 4-3z" fill="#6B6ED6"/>
<path transform="translate(535,229)" d="m0 0 6 5v2l-6-2-3-2v-2z" fill="#3BACF0"/>
<path transform="translate(415,565)" d="m0 0 2 1-7 8h-3l7-8z" fill="#35A8EF"/>
<path transform="translate(705,444)" d="m0 0 3 1h-2v2l-7 4-2-1v-2z" fill="#7074DB"/>
<path transform="translate(556,439)" d="m0 0h3l-5 10h-1v-6z" fill="#9CA6CD"/>
<path transform="translate(245,432)" d="m0 0 3 3-1 4-9-2-1-2 9 1z" fill="#6661C7"/>
<path transform="translate(701,408)" d="m0 0 4 1-5 4-5-1 4-3z" fill="#7078E1"/>
<path transform="translate(702,369)" d="m0 0 3 1-8 5h-6l3-2z" fill="#7074DB"/>
<path transform="translate(702,371)" d="m0 0h3l-1 5-4 1v-2l-3-1z" fill="#8395F9"/>
<path transform="translate(354,286)" d="m0 0 9 3 2 2-3 1-7-3z" fill="#39A9EF"/>
</svg>
