<svg xmlns="http://www.w3.org/2000/svg" width="256" height="256" viewBox="0 0 256 256" fill="none">

<path d="M40.524 175.332V153.326L127.5 204.15V224.584L40.524 175.332Z" fill="#183F66" fill-opacity="0.8"/>
<path d="M127.5 24.4341V4L212.904 51.1557L213.428 72.6377L127.5 24.4341Z" fill="#6a329f" fill-opacity="0.8"/>
<path d="M40.524 73.6856V52.2036L213.952 152.278V175.332L40.524 73.6856Z" fill="#2986cc"/>
<path d="M40.524 203.626V181.62L127.5 232.443V252.877L40.524 203.626Z" fill="#183F66" fill-opacity="0.8"/>
<path d="M127.5 51.1557V30.7216L212.904 81.021V101.455L127.5 51.1557Z" fill="#6a329f" fill-opacity="0.8"/>
<path d="M40 101.5L40.524 79.9731L215 182.144V202.578L40 101.5Z" fill="#2986cc" fill-opacity="0.8"/>
<path d="M214.476 175.332V153.326L127.5 204.15V224.584L214.476 175.332Z" fill="#183F66" fill-opacity="0.8"/>
<path d="M127.5 24.4341V4L40.524 53.2515V73.6856L127.5 24.4341Z" fill="#6a329f" fill-opacity="0.8"/>
<path d="M214.476 203.626V181.62L127.5 232.443V252.877L214.476 203.626Z" fill="#183F66" fill-opacity="0.8"/>
<path d="M126.452 51.6796V30.7216L40.524 81.5449V101.979L126.452 51.6796Z" fill="#6a329f" fill-opacity="0.8"/>
<path d="M172.036 177.952L40.524 101.455V52.7275L127.5 4L212.904 51.1557V101.455L127.5 51.1557L84.012 76.8293M172.036 177.952L127.5 203.626M172.036 177.952L214.476 152.818M84.012 76.8293L214.476 152.818M84.012 76.8293L40.524 101.979M127.5 203.626L40.524 152.818V203.626L127.5 252.877M127.5 203.626V252.877M214.476 152.818V203.626L127.5 252.877M126.976 4V51.1557M126.452 101.979V150.707" stroke="black"/>
</svg>